<svg xmlns="http://www.w3.org/2000/svg" xmlns:xlink="http://www.w3.org/1999/xlink" xml:space="preserve" preserveAspectRatio="none" width="463.149" height="251.425" viewBox="0 0 463.149 251.425">
  <defs>
    <filter id="Union_1" x="5.5" y="0" width="457.649" height="250.925" filterUnits="userSpaceOnUse">
      <feOffset input="SourceAlpha"/>
      <feGaussianBlur stdDeviation="7.5" result="blur"/>
      <feFlood flood-opacity="0.459"/>
      <feComposite operator="in" in2="blur"/>
      <feComposite in="SourceGraphic"/>
    </filter>
    <filter id="Ellipse_1" x="0" y="154.425" width="118" height="97" filterUnits="userSpaceOnUse">
      <feOffset dy="3" input="SourceAlpha"/>
      <feGaussianBlur stdDeviation="5" result="blur-2"/>
      <feFlood flood-opacity="0.451"/>
      <feComposite operator="in" in2="blur-2"/>
      <feComposite in="SourceGraphic"/>
    </filter>
    <filter id="Polygon_1" x="105" y="33.425" width="126" height="102" filterUnits="userSpaceOnUse">
      <feOffset input="SourceAlpha"/>
      <feGaussianBlur stdDeviation="10" result="blur-3"/>
      <feFlood flood-opacity="0.29"/>
      <feComposite operator="in" in2="blur-3"/>
      <feComposite in="SourceGraphic"/>
    </filter>
  </defs>
  <g id="brand-bg" transform="translate(-139 -105.575)">
    <g transform="matrix(1, 0, 0, 1, 139, 105.58)" filter="url(#Union_1)">
      <path id="Union_1-2" data-name="Union 1" d="M68,248.045a68,68,0,1,1,0-136h50.748c91.985-66.5,341.688-99.771,285.852-35-42.126,46.263-89.91,26.746-83.16,71.808a67.641,67.641,0,0,1,7.512,28.6c.841,1.139,1.111,1.392.042,1.609,0,.327.007.657.007.985a68,68,0,0,1-68,68Z" transform="translate(28 -19.62)" fill="#fb0f5a"/>
    </g>
    <g transform="matrix(1, 0, 0, 1, 139, 105.58)" filter="url(#Ellipse_1)">
      <ellipse id="Ellipse_1-2" data-name="Ellipse 1" cx="44" cy="33.5" rx="44" ry="33.5" transform="translate(15 166.42)" fill="#ff971e"/>
    </g>
    <g transform="matrix(1, 0, 0, 1, 139, 105.58)" filter="url(#Polygon_1)">
      <path id="Polygon_1-2" data-name="Polygon 1" d="M33,0,66,42H0Z" transform="translate(135 63.42)" fill="#1bbaff"/>
    </g>
  </g>
</svg>
